<?xml version="1.0" encoding="UTF-8"?>
<svg width="37px" height="90px" viewBox="0 0 37 90" version="1.1" xmlns="http://www.w3.org/2000/svg" xmlns:xlink="http://www.w3.org/1999/xlink">
    <!-- Generator: Sketch 40.1 (33804) - http://www.bohemiancoding.com/sketch -->
    <title>Group 2</title>
    <desc>Created with Sketch.</desc>
    <defs></defs>
    <g id="Page-1" stroke="none" stroke-width="1" fill="none" fill-rule="evenodd">
        <g id="noun_668396_cc" transform="translate(-715.000000, 0.000000)" fill="#24272B">
            <g id="Group">
                <g id="Group-2" transform="translate(715.000000, 0.000000)">
                    <path d="M18.996,89.961 L18.994,89.961 C12.208,89.961 6.389,89.302 6.332,89.295 L6.086,89.267 L5.988,89.04 C4.666,85.966 6.591,83.352 7.284,82.551 C6.89,81.82 6.784,81.092 6.969,80.385 C7.264,79.252 8.23,78.517 8.658,78.24 C10.699,53.548 1.055,17.047 0.957,16.68 L0.813,16.143 L35.034,16.143 L34.89,16.68 C34.793,17.047 25.148,53.548 27.189,78.238 C28.165,78.876 29.446,80.416 28.535,82.544 C29.202,83.39 31.387,86.491 29.833,89.09 L29.73,89.265 L29.53,89.293 C26.531,89.737 22.988,89.961 18.996,89.961 L18.996,89.961 Z M6.682,88.474 C7.865,88.599 13.056,89.107 18.995,89.107 L18.997,89.107 C22.854,89.107 26.284,88.897 29.197,88.479 C30.435,86.051 27.742,82.921 27.714,82.888 L27.525,82.673 L27.654,82.416 C28.793,80.141 26.667,78.916 26.576,78.866 L26.379,78.754 L26.358,78.529 C24.369,55.327 32.732,21.649 33.927,16.997 L1.924,16.997 C3.118,21.649 11.481,55.327 9.492,78.529 L9.473,78.758 L9.269,78.868 C9.257,78.875 8.074,79.527 7.796,80.605 C7.652,81.164 7.778,81.76 8.173,82.378 L8.359,82.668 L8.114,82.912 C8.007,83.016 5.573,85.49 6.682,88.474 L6.682,88.474 Z" id="Shape"></path>
                    <path d="M33.43,30.751 L33.43,30.751 C32.493,30.751 31.838,30.145 31.762,29.205 C31.538,26.451 32.652,22.23 32.755,21.846 C32.838,21.275 33.474,18.788 33.942,16.996 L0.97,16.996 L0.906,16.645 C0.858,16.381 -0.233,10.146 2.701,6.631 C3.971,5.109 5.798,4.338 8.13,4.338 L8.489,4.341 C10.53,4.341 11.396,3.633 12.491,2.737 C13.415,1.983 14.461,1.126 16.374,0.627 C17.639,0.298 18.772,0.136 19.836,0.136 C22.247,0.136 23.806,0.986 25.182,1.733 C26.461,2.431 27.549,3.01 29.142,2.921 C31.333,2.767 33.103,3.577 34.466,5.284 C36.839,8.25 37.288,13.436 36.703,16.038 C36.256,18.019 34.895,24.048 35.685,25.894 C36.474,27.733 35.972,28.948 35.602,29.508 C35.104,30.264 34.252,30.751 33.43,30.751 L33.43,30.751 Z M1.693,16.142 L35.049,16.142 L34.909,16.678 C34.418,18.546 33.63,21.63 33.6,21.956 C33.574,22.093 32.397,26.462 32.614,29.136 C32.668,29.799 33.149,29.897 33.431,29.897 C33.973,29.899 34.546,29.562 34.89,29.041 C35.364,28.32 35.369,27.324 34.902,26.234 C34.104,24.371 35,19.708 35.87,15.854 C36.419,13.419 36.007,8.579 33.801,5.82 C32.617,4.34 31.067,3.667 29.2,3.775 C27.366,3.905 26.107,3.213 24.774,2.486 C23.425,1.752 22.03,0.992 19.837,0.992 C18.846,0.992 17.784,1.144 16.59,1.456 C14.858,1.907 13.93,2.666 13.032,3.4 C11.902,4.323 10.835,5.196 8.489,5.196 L8.13,5.193 C6.062,5.193 4.456,5.861 3.356,7.179 C1.05,9.941 1.512,14.801 1.693,16.142 L1.693,16.142 Z" id="Shape"></path>
                    <path d="M4.385,29.621 C7.078,42.626 10.406,62.858 9.066,78.491 C9.066,78.491 6.173,80.042 7.813,82.607 C7.813,82.607 4.92,85.47 6.381,88.871 C6.381,88.871 19.371,90.363 29.467,88.871 C31.108,86.127 28.035,82.607 28.035,82.607 C29.377,79.923 26.782,78.491 26.782,78.491 C25.454,62.995 28.712,42.637 31.392,29.621 L4.385,29.621 L4.385,29.621 Z" id="Shape"></path>
                </g>
            </g>
        </g>
    </g>
</svg>