<?xml version="1.0" encoding="UTF-8"?>
<svg width="74px" height="74px" viewBox="0 0 74 74" version="1.1" xmlns="http://www.w3.org/2000/svg" xmlns:xlink="http://www.w3.org/1999/xlink">
    <!-- Generator: Sketch 40.1 (33804) - http://www.bohemiancoding.com/sketch -->
    <title>Shape</title>
    <desc>Created with Sketch.</desc>
    <defs></defs>
    <g id="Page-1" stroke="none" stroke-width="1" fill="none" fill-rule="evenodd">
        <g id="noun_702576_cc" fill="#000000">
            <path d="M68.4,1.6 L39.1,30.9 C37.9,32.1 36,32.1 34.9,30.9 L5.6,1.6 C4.4,0.4 2.5,0.4 1.4,1.6 L1.4,1.6 C0.2,2.8 0.2,4.7 1.4,5.8 L30.7,35.1 C31.9,36.3 31.9,38.2 30.7,39.3 L1.3,68.7 C0.1,69.9 0.1,71.8 1.3,72.9 L1.3,72.9 C2.5,74.1 4.4,74.1 5.5,72.9 L34.8,43.6 C36,42.4 37.9,42.4 39,43.6 L68.4,73 C69.6,74.2 71.5,74.2 72.6,73 L72.6,73 C73.8,71.8 73.8,69.9 72.6,68.8 L43.4,39.4 C42.2,38.2 42.2,36.3 43.4,35.2 L72.7,5.9 C73.9,4.7 73.9,2.8 72.7,1.7 L72.7,1.7 C71.5,0.5 69.6,0.5 68.4,1.6 L68.4,1.6 Z" id="Shape"></path>
        </g>
    </g>
</svg>