<?xml version="1.0" encoding="UTF-8"?>
<svg width="428px" height="489px" viewBox="0 0 428 489" version="1.1" xmlns="http://www.w3.org/2000/svg" xmlns:xlink="http://www.w3.org/1999/xlink">
    <!-- Generator: Sketch 40.1 (33804) - http://www.bohemiancoding.com/sketch -->
    <title>businessman</title>
    <desc>Created with Sketch.</desc>
    <defs></defs>
    <g id="Page-1" stroke="none" stroke-width="1" fill="none" fill-rule="evenodd">
        <g id="businessman" fill="#FFFF00">
            <g id="Group">
                <path d="M372.275,331.65 C320.075,311.75 288.875,291.35 288.875,291.35 L248.675,418.55 L243.175,435.75 L225.175,384.75 C266.575,327.05 222.075,324.25 214.275,324.25 L214.275,324.25 L214.175,324.25 L214.075,324.25 L213.975,324.25 L213.875,324.25 L213.875,324.25 C206.175,324.35 161.675,327.05 203.075,384.75 L185.075,435.75 L179.575,418.55 L139.375,291.35 C139.375,291.35 108.175,311.75 55.975,331.65 C-1.525,352.55 2.075,399.85 0.875,488.45 L213.975,488.45 L214.475,488.45 L427.575,488.45 C426.175,399.85 429.675,352.55 372.275,331.65 L372.275,331.65 Z" id="Shape"></path>
                <path d="M112.375,228.25 C107.175,239.35 98.375,253.15 84.275,260.05 C79.675,262.35 80.675,269.25 85.775,270.05 C101.175,272.45 123.275,269.75 143.875,254.15 L144.175,254.35 C196.475,285.25 264.975,278.15 309.975,233.25 C363.375,179.85 363.375,93.35 309.975,40.05 C256.575,-13.35 170.175,-13.35 116.775,40.05 C65.375,91.45 63.475,173.45 110.975,227.15 L112.375,228.25 L112.375,228.25 Z M219.075,52.25 C231.375,52.35 241.175,62.35 241.075,74.85 C240.975,87.15 230.975,97.25 218.975,97.15 C206.575,97.05 196.575,86.95 196.675,74.55 C196.775,62.05 206.775,52.25 219.075,52.25 L219.075,52.25 Z M175.775,112.05 C176.075,109.65 177.575,108.05 180.775,107.45 C182.475,107.15 184.175,107.05 185.875,107.05 L206.375,107.05 L228.075,107.05 C233.275,107.05 236.375,109.55 236.475,114.75 C236.575,119.05 235.875,123.45 235.075,127.75 C232.275,143.65 229.275,159.55 226.375,175.45 C225.375,180.75 224.375,185.95 223.675,191.25 C223.375,193.75 223.775,196.45 224.375,198.95 C225.175,202.25 227.675,204.15 231.075,203.75 C233.875,203.45 236.675,202.45 239.375,201.45 C241.575,200.65 243.475,199.15 245.675,198.25 C248.875,196.95 251.575,199.25 250.775,202.55 C250.275,204.45 249.075,206.45 247.675,207.85 C239.575,216.05 229.875,220.95 218.275,221.05 C212.875,221.15 207.375,220.95 202.075,220.15 C193.175,218.85 181.875,207.85 183.475,196.05 C184.575,188.05 185.775,179.95 187.175,172.05 C189.575,158.15 192.075,144.25 194.475,130.35 C194.675,129.45 194.675,128.55 194.675,127.65 C194.675,121.85 192.875,119.75 187.075,118.95 C184.575,118.65 182.075,118.45 179.775,117.55 C176.775,116.55 175.575,114.25 175.775,112.05 L175.775,112.05 Z" id="Shape"></path>
            </g>
        </g>
    </g>
</svg>