<?xml version="1.0" encoding="UTF-8"?>
<svg width="44px" height="86px" viewBox="0 0 44 86" version="1.1" xmlns="http://www.w3.org/2000/svg" xmlns:xlink="http://www.w3.org/1999/xlink">
    <!-- Generator: Sketch 40.1 (33804) - http://www.bohemiancoding.com/sketch -->
    <title>noun_665815_cc</title>
    <desc>Created with Sketch.</desc>
    <defs></defs>
    <g id="Page-1" stroke="none" stroke-width="1" fill="none" fill-rule="evenodd">
        <g id="noun_665815_cc" transform="translate(0.000000, -1.000000)" fill="#24272B">
            <g id="Group" transform="translate(0.000000, 0.637820)">
                <path d="M22,0.36218 C9.849736,0.36218 0,10.211916 0,22.36218 C0,34.512444 9.849736,44.36218 22,44.36218 C34.150264,44.36218 44,34.512444 44,22.36218 C44,10.211916 34.150264,0.36218 22,0.36218 L22,0.36218 Z M20,48.29968 L20,84.36218 C19.9897994,85.0834518 20.3687506,85.7543427 20.9917457,86.1179554 C21.6147408,86.4815682 22.3852592,86.4815682 23.0082543,86.1179554 C23.6312494,85.7543427 24.0102006,85.0834518 24,84.36218 L24,48.29968 C23.340134,48.34986 22.672717,48.36218 22,48.36218 C21.327283,48.36218 20.659866,48.34986 20,48.29968 L20,48.29968 Z" id="Shape"></path>
            </g>
        </g>
    </g>
</svg>