<?xml version="1.0" encoding="UTF-8"?>
<svg width="70px" height="90px" viewBox="0 0 70 90" version="1.1" xmlns="http://www.w3.org/2000/svg" xmlns:xlink="http://www.w3.org/1999/xlink">
    <!-- Generator: Sketch 40.1 (33804) - http://www.bohemiancoding.com/sketch -->
    <title>noun_685951_cc</title>
    <desc>Created with Sketch.</desc>
    <defs></defs>
    <g id="Page-1" stroke="none" stroke-width="1" fill="none" fill-rule="evenodd">
        <g id="noun_685951_cc" fill="#24272B">
            <path d="M51.29,0.722 L18.793,0.722 C8.756,0.722 0.619,8.859 0.619,18.897 L0.619,51.39 C0.619,61.428 8.756,69.565 18.793,69.565 L24.355,69.565 L35.042,89.279 L45.73,69.565 L51.291,69.565 C61.328,69.565 69.465,61.428 69.465,51.39 L69.465,18.896 C69.463,8.858 61.327,0.722 51.29,0.722 L51.29,0.722 Z M33.795,22.722 C33.795,28.303 30.552,33.02 26.128,34.519 L26.128,55.404 L20.128,55.404 L20.128,34.519 C15.704,33.02 12.461,28.303 12.461,22.722 L12.461,16.368 L18.461,16.368 L18.461,22.722 C18.461,24.611 19.116,26.334 20.128,27.5 L20.128,16.403 L26.128,16.403 L26.128,27.5 C27.14,26.334 27.795,24.61 27.795,22.722 L27.795,16.368 L33.795,16.368 L33.795,22.722 L33.795,22.722 Z M49.956,37.239 L49.956,55.404 L43.956,55.404 L43.956,37.239 C39.532,35.756 36.29,31.091 36.29,25.571 C36.29,18.862 41.075,13.404 46.956,13.404 C52.837,13.404 57.622,18.862 57.622,25.571 C57.622,31.09 54.379,35.756 49.956,37.239 L49.956,37.239 Z" id="Shape"></path>
            <path d="M46.956,19.403 C44.427,19.403 42.29,22.227 42.29,25.57 C42.29,28.913 44.427,31.737 46.956,31.737 C49.485,31.737 51.622,28.913 51.622,25.57 C51.622,22.227 49.485,19.403 46.956,19.403 L46.956,19.403 Z" id="Shape"></path>
        </g>
    </g>
</svg>