<?xml version="1.0" encoding="UTF-8"?>
<svg width="49px" height="59px" viewBox="0 0 49 59" version="1.1" xmlns="http://www.w3.org/2000/svg" xmlns:xlink="http://www.w3.org/1999/xlink">
    <!-- Generator: Sketch 40.1 (33804) - http://www.bohemiancoding.com/sketch -->
    <title>Shape</title>
    <desc>Created with Sketch.</desc>
    <defs></defs>
    <g id="Page-1" stroke="none" stroke-width="1" fill="none" fill-rule="evenodd">
        <g id="garbage" fill="#FFFF00">
            <path d="M47.5,6 L33.456,6 C33.346,4.75 32.961,2.642 31.643,1.289 C30.809,0.434 29.751,0 28.499,0 L18.5,0 C17.248,0 16.19,0.434 15.356,1.289 C14.038,2.642 13.653,4.75 13.543,6 L1.5,6 C0.948,6 0.5,6.447 0.5,7 C0.5,7.553 0.948,8 1.5,8 L3.541,8 L5.456,54.021 C5.493,55.743 6.565,59 10.364,59 L38.636,59 C42.435,59 43.507,55.743 43.543,54.042 L45.459,8 L47.5,8 C48.052,8 48.5,7.553 48.5,7 C48.5,6.447 48.052,6 47.5,6 L47.5,6 Z M15.5,50 C15.5,50.553 15.052,51 14.5,51 C13.948,51 13.5,50.553 13.5,50 L13.5,17 C13.5,16.447 13.948,16 14.5,16 C15.052,16 15.5,16.447 15.5,17 L15.5,50 L15.5,50 Z M25.5,50 C25.5,50.553 25.052,51 24.5,51 C23.948,51 23.5,50.553 23.5,50 L23.5,17 C23.5,16.447 23.948,16 24.5,16 C25.052,16 25.5,16.447 25.5,17 L25.5,50 L25.5,50 Z M35.5,50 C35.5,50.553 35.052,51 34.5,51 C33.948,51 33.5,50.553 33.5,50 L33.5,17 C33.5,16.447 33.948,16 34.5,16 C35.052,16 35.5,16.447 35.5,17 L35.5,50 L35.5,50 Z M16.792,2.681 C17.24,2.223 17.799,2 18.5,2 L28.499,2 C29.2,2 29.759,2.223 30.207,2.681 C31.012,3.504 31.335,4.952 31.447,6 L15.553,6 C15.665,4.952 15.988,3.504 16.792,2.681 L16.792,2.681 Z" id="Shape"></path>
        </g>
    </g>
</svg>